<svg id="Camada_1" data-name="Camada 1" xmlns="http://www.w3.org/2000/svg" viewBox="0 0 1024 1024"><defs><style>.cls-1{fill:#1c2a49;}.cls-2{fill:#fff;}</style></defs><path class="cls-1" d="M1023.91,1.25q0,509.09.09,1018.16c0,3.75-.84,4.59-4.59,4.59q-509.14-.15-1018.3-.09c-.93-1.73-.47-3.6-.47-5.4Q.61,512.69.62,6.88C.63,0-.07.77,6.77.77q505.88,0,1011.77,0C1020.33.78,1022.19.34,1023.91,1.25Z"/><path class="cls-2" d="M1023.91,1.25Q515.52,1.25,7.12,1.13C2.12,1.13,1,2.27,1,7.27q.2,508.32.12,1016.64c-.31-.22-1,.5-1-.5,0-1.33,0-2.66,0-4Q.11,512.21,0,5C0,1,.8.14,4.85.14Q512.14.32,1019.41.32C1020.87.32,1022.8-.83,1023.91,1.25Z"/><path class="cls-2" d="M942.94,712.32a435.06,435.06,0,0,1-31.6,57.21C838,880.08,736.6,949.87,606.73,977.52c-48,10.23-96.62,12-145.47,6.63C265.42,962.7,103.24,823,53.35,632.65a460.62,460.62,0,0,1-12-64.12,6.68,6.68,0,0,0-3.44-5.42C.66,538.72.77,486.46,38.12,461.92a6.22,6.22,0,0,0,3.19-5c9.07-75.35,34-145,76.77-207.75Q227.75,88.22,418.63,47.45c5.19-1.11,10.48-1.8,15.67-2.93,2.69-.59,3.37.11,3.35,2.84q-.15,29.44,0,58.91c0,2.8-1,3.47-3.59,4Q306.48,135.52,216.39,229.35,128.25,321.44,107.8,447.6c0,.33-.1.66-.18,1-2.39,9.19-1.48,16.12,6.33,24,23.47,23.69,21,62.3-4.1,84.53-3.5,3.11-4.35,6-3.75,10.25,11.19,79.71,42.42,150.51,95,211.53,59.25,68.8,133,115,222,133.43,137.89,28.58,260.62-3.83,366.28-97.67,32.08-28.5,58.16-62.06,79.56-99.25,1-1.77,1.77-3.18,4.35-3.16C896.19,712.37,919.16,712.32,942.94,712.32Z"/><path class="cls-2" d="M511.45,662.4c-38.12,0-76.24-.31-114.36.09-37.78.39-66.62-24.06-76.91-51.76-4.26-11.48-5.39-23.64-7.32-35.6q-16.39-101.94-32.65-203.92c-2.1-13.13-4.36-26.25-6.19-39.42-.49-3.53-1.86-4.17-5-4.13-12.65.17-25.32-.41-37.94.2-14.71.71-27.95-11.08-28.46-25.38-.54-14.9,9.71-27.32,25.66-28,19.6-.85,39.31-1,58.88.14,20.68,1.18,34.31,15,37.59,35.58,2.82,17.73,5.78,35.45,8.38,53.21.56,3.82,2,4.64,5.64,4.64q159.79-.15,319.59,0c13.8,0,27.64-1,41.4.79,28.9,3.79,50.26,33.88,44,62.4-12.57,57.13-25,114.31-38.28,171.27-8,34.37-38.14,58.6-73.62,59.59-32.11.9-64.25.29-96.37.35Z"/><path class="cls-2" d="M942.56,312.84c-23.44,0-46.56,0-69.68.07-2.74,0-3.22-1.82-4.16-3.46A413.07,413.07,0,0,0,758.87,185q-75.18-56.79-167.74-74.7c-2.91-.57-3.8-1.38-3.78-4.34q.2-29.19,0-58.4c0-3,.7-3.54,3.64-3Q830.57,90,940.49,307.59c.6,1.18,1.12,2.41,1.65,3.62A13.34,13.34,0,0,1,942.56,312.84Z"/><path class="cls-2" d="M416.36,716a53.43,53.43,0,0,1,53.83,53.35c.07,29.45-24.18,53.81-53.59,53.82S362.88,798.73,363,769.38A53.59,53.59,0,0,1,416.36,716Z"/><path class="cls-2" d="M603.85,716a53.23,53.23,0,0,1,53.65,53.42c0,29.61-24.1,53.8-53.56,53.75a53.9,53.9,0,0,1-53.45-53.41A53.36,53.36,0,0,1,603.85,716Z"/><path class="cls-2" d="M482.54,71q0-15,0-29.95c0-17.21,10.74-27.87,28.09-27.83,4.47,0,8.94-.37,13.39.82,11.22,3,19.29,12.69,19.38,24.27.16,22,.2,43.92,0,65.88a25.33,25.33,0,0,1-22.55,24.6c-6.07.62-12.29.95-18.37-.52a25.63,25.63,0,0,1-19.93-24.83c0-.34,0-.67,0-1Z"/><path class="cls-1" d="M70.1,540.54A28,28,0,1,1,98,512.64,28.08,28.08,0,0,1,70.1,540.54Z"/><path class="cls-1" d="M691,421.81c-4.26,19.2-8.46,38.17-12.68,57.13q-11.86,53.27-23.78,106.54c-3.56,15.81-13.13,23.41-29.39,23.45-29.29.08-58.58,0-87.88,0q-69.64,0-139.29,0c-16.18,0-26.76-8.56-29.26-23.48-1.46-8.69-2.76-17.4-4.15-26.1q-10.67-66.74-21.45-133.44c-.59-3.63-.06-4.47,3.63-4.46q170.25.14,340.5.08C688.42,421.54,689.56,421.7,691,421.81Z"/></svg>