<svg id="Camada_1" data-name="Camada 1" xmlns="http://www.w3.org/2000/svg" viewBox="0 0 933.81 975.22"><defs><style>.cls-1{fill:#FFFFFF;}</style></defs><path class="cls-1" d="M942.72,312c-23.57,0-46.39-.09-69.2.09-3,0-3.93-1.66-5.09-3.67a407.69,407.69,0,0,0-70.57-90.74Q710.37,133.14,591,109.33c-3.53-.7-4.08-2-4.05-5.14.12-18.82.17-37.64,0-56.46,0-4,.76-4.73,4.87-4Q756.47,72.91,867.86,197.6c29.61,33,53.64,69.85,72.86,109.82C941.36,308.73,941.89,310.1,942.72,312Z" transform="translate(-9.03 -12)"/><path class="cls-1" d="M416.18,715.7a53.48,53.48,0,0,1,53.45,53.82c-.28,29.43-24.28,53.39-53.56,53.45s-53.76-24.38-53.75-53.81A53.63,53.63,0,0,1,416.18,715.7Z" transform="translate(-9.03 -12)"/><path class="cls-1" d="M603.52,715.7A53.64,53.64,0,1,1,603.44,823a53.64,53.64,0,0,1,.08-107.27Z" transform="translate(-9.03 -12)"/><path class="cls-1" d="M543,70.22c0,10.49.06,21,0,31.47-.11,15-11.14,26.22-26.12,26.33-5,0-10,.54-14.91-.7-11.55-2.88-19.78-12.59-19.88-24.41q-.27-32.72,0-65.44a25.59,25.59,0,0,1,25.59-25.33c5.29-.06,10.63-.59,15.9.81a25.63,25.63,0,0,1,19.39,24.3c.18,11,0,22,0,33Z" transform="translate(-9.03 -12)"/><path class="cls-1" d="M876.12,711.85c-4.19,0-6.34,1.18-8.46,4.87C774.13,879.26,581.92,958.35,401.57,907.06c-119.31-33.92-205.7-108.44-260.51-219.5-18.84-38.18-30-78.81-35.88-120.93-.57-4,.17-6.86,3.55-9.85,27.47-24.31,27.16-65.85-.59-90.14-2.74-2.4-3.68-4.66-3.07-8.1,1.52-8.68,2.47-17.48,4.3-26.1,26.29-123.65,94.74-216.67,204.13-279.57,37.34-21.47,77.62-35.42,119.86-43.67,2.09-.41,3.73-.44,3.71-3.38q-.17-30,0-60c0-2.79-1.08-2.87-3.27-2.42-5.22,1.06-10.5,1.81-15.7,2.92Q227.32,87.2,117.18,248.28C74.47,311,49.51,380.56,40.39,455.84a6.68,6.68,0,0,1-3.32,5.51c-37.38,24.48-37.39,76.74,0,101.29a6.74,6.74,0,0,1,3.34,5.5c1.14,9.08,2.32,18.17,4,27.17Q66.09,715,142.19,810c110.05,137.54,291.47,203.59,464,167.49C736.46,950.2,838,879.79,911.45,768.89A426.27,426.27,0,0,0,942.84,712C920.1,712,898.11,712.09,876.12,711.85ZM68.86,540a28,28,0,1,1,28.21-28.15A28.09,28.09,0,0,1,68.86,540Z" transform="translate(-9.03 -12)"/><path class="cls-1" d="M740.34,400.58c-8.7-21.21-27.7-33.35-52.09-33.35q-174.68,0-349.36.12c-4.76,0-6.09-1.46-6.72-5.83-2.54-17.46-5.39-34.87-8.19-52.3-3.31-20.59-17-34.31-37.76-35.47-19.42-1.1-39-.94-58.44-.19-15.95.62-26.43,12.89-26,27.77.39,14.57,13.64,26.47,28.68,25.73,12.63-.61,25.32,0,38-.21,3.42-.06,4.42,1,4.9,4.32,1.95,13.51,4.27,27,6.43,40.44Q295.9,473,312.12,574.28c1.95,12.14,3.1,24.46,7.43,36.12,10.14,27.31,38.84,52.09,77.09,51.68,38-.41,76-.09,114-.09s76,0,113.95,0c6.18,0,12.4-.13,18.39-1.52,33.17-7.71,55.1-27.73,62.88-61.05,12.91-55.25,24.7-110.76,37.21-166.1A53.09,53.09,0,0,0,740.34,400.58Zm-50.47,24.94c-12,53.08-23.71,106.2-35.62,159.28C650.59,601.14,641,608.49,624,608.5q-81.71,0-163.42,0-31,0-62,0c-18.5,0-27.9-8-30.85-26.31-8.48-52.58-16.85-105.18-25.44-157.74-.73-4.44,1.71-3.62,4.14-3.62H516.34q84.7,0,169.42-.07C689.59,420.75,690.83,421.28,689.87,425.52Z" transform="translate(-9.03 -12)"/></svg>