<?xml version="1.0" encoding="UTF-8"?>
<!DOCTYPE svg PUBLIC "-//W3C//DTD SVG 1.1//EN" "http://www.w3.org/Graphics/SVG/1.1/DTD/svg11.dtd">
<!-- Creator: CorelDRAW -->
<svg xmlns="http://www.w3.org/2000/svg" xml:space="preserve" width="120mm" height="120mm" version="1.1" style="shape-rendering:geometricPrecision; text-rendering:geometricPrecision; image-rendering:optimizeQuality; fill-rule:evenodd; clip-rule:evenodd"
viewBox="0 0 12000 12000"
 xmlns:xlink="http://www.w3.org/1999/xlink"
 xmlns:xodm="http://www.corel.com/coreldraw/odm/2003">
 <defs>
  <style type="text/css">
   <![CDATA[
    .fil8 {fill:#08264C;fill-rule:nonzero}
    .fil9 {fill:#263238;fill-rule:nonzero}
    .fil13 {fill:#630F0F;fill-rule:nonzero}
    .fil12 {fill:#7F3E3B;fill-rule:nonzero}
    .fil7 {fill:#E0E0E0;fill-rule:nonzero}
    .fil1 {fill:#E6E6E6;fill-rule:nonzero}
    .fil0 {fill:#EBEBEB;fill-rule:nonzero}
    .fil6 {fill:#F0F0F0;fill-rule:nonzero}
    .fil2 {fill:whitesmoke;fill-rule:nonzero}
    .fil3 {fill:white;fill-rule:nonzero}
    .fil15 {fill:black;fill-rule:nonzero;fill-opacity:0.200000}
    .fil4 {fill:#F0F0F0;fill-rule:nonzero;fill-opacity:0.250980}
    .fil14 {fill:black;fill-rule:nonzero;fill-opacity:0.301961}
    .fil11 {fill:white;fill-rule:nonzero;fill-opacity:0.400000}
    .fil5 {fill:#F0F0F0;fill-rule:nonzero;fill-opacity:0.501961}
    .fil10 {fill:#FAFAFA;fill-rule:nonzero;fill-opacity:0.800000}
   ]]>
  </style>
 </defs>
 <g id="Camada_x0020_1">
  <metadata id="CorelCorpID_0Corel-Layer"/>
  <g id="freepik--background-complete--inject-65">
   <rect id="eltdp5xgdnmrb" class="fil0" x="-614.59" y="9503.08" width="13229.17" height="6.61"/>
   <rect id="el3nbpgdyu6mx" class="fil0" x="1463.45" y="9725.08" width="876.3" height="6.61"/>
   <rect id="el2qukv0wgrts" class="fil0" x="2913.11" y="9915.83" width="798.25" height="6.61"/>
   <rect id="elzu69vipm7bq" class="fil0" x="889.57" y="9970.6" width="1012.03" height="6.61"/>
   <rect id="el2u1ijwbr5en" class="fil0" x="10868.33" y="9956.32" width="420.69" height="6.61"/>
   <rect id="el3kp3b68t5p4" class="fil0" x="9743.06" y="9956.32" width="1040.34" height="6.61"/>
   <rect id="el8ed67wudpf5" class="fil0" x="6000" y="9721.64" width="802.48" height="6.61"/>
   <rect id="els4gzc5nr1b" class="fil0" x="6917.31" y="9721.64" width="1907.65" height="6.61"/>
   <path id="el9f33006gf0v" class="fil0" d="M5656.04 8323.04l-5108.84 0c-83.31,-0.14 -150.8,-67.76 -150.8,-151.09 0,0 0,0 0,0l-0.01 -7181.57c0.72,-82.82 68.01,-149.63 150.82,-149.76l5108.83 0c83.44,0 151.09,67.65 151.09,151.08l-0.01 7180.26c0.01,83.42 -67.64,151.07 -151.07,151.07l-0.01 0.01zm-5108.84 -7477.12c-79.65,0.14 -144.18,64.8 -144.18,144.46 0,0 0,0 0,0l-0.02 7181.58c0.02,-0.01 0.02,-0.01 0.02,-0.01 0,79.66 64.53,144.32 144.2,144.46l5108.82 0.02c79.74,-0.15 144.34,-64.75 144.48,-144.47l-0.02 -7181.58c-0.12,-79.73 -64.72,-144.33 -144.44,-144.47l-5108.86 0.01z"/>
   <path id="el9ogzx8b1cxm" class="fil0" d="M11379.24 8323.04l-5109.1 0c-83.36,-0.14 -150.95,-67.73 -151.08,-151.09l0 -7181.57c0.87,-82.85 68.23,-149.62 151.08,-149.75l5109.1 -0.01c82.7,0.28 149.84,67.05 150.56,149.75l-0.01 7181.59c0,0 0,0 0,0 0,83.22 -67.32,150.8 -150.54,151.08l-0.01 0zm-5109.1 -7477.12c-79.73,0.13 -144.33,64.73 -144.47,144.45l0.01 7181.59c0.13,79.72 64.73,144.32 144.45,144.46l5109.11 0.01c79.73,-0.15 144.33,-64.75 144.47,-144.47l0 -7181.58c-0.14,-79.73 -64.74,-144.33 -144.46,-144.47l-5109.11 0.01z"/>
   <rect id="eld59gupwo1ur" class="fil1" x="6386.81" y="6428.9" width="761.21" height="3074.19"/>
   <polygon id="elkdtfjruv9h" class="fil2" points="6831.59,9503.08 7148.03,9503.08 7148.03,8972.86 6499.8,8972.86 "/>
   <rect id="elxlp09thb5bn" class="fil1" x="889.57" y="6428.9" width="761.21" height="3074.19"/>
   <rect id="elr3ngab8172s" class="fil2" x="1374.56" y="6428.89" width="5773.21" height="2891.63"/>
   <path id="elmxb1313gxse" class="fil0" d="M6915.72 7316.57l-5307.8 0 0 -632.35 5307.8 -0.01 0 632.36zm-5281.35 -26.46l5254.89 0 0 -579.44 -5254.89 0 0 579.44z"/>
   <polygon id="elipwz9g5vpvl" class="fil2" points="1691,9503.08 1374.55,9503.08 1374.55,8972.86 2022.78,8972.86 "/>
   <path id="eleu4csvec9xa" class="fil0" d="M6915.72 9065.2l-5307.8 0 0 -1508.13 5307.8 0 0 1508.13zm-5281.35 -26.46l5254.89 0 0 -1455.21 -5254.89 0 0 1455.21z"/>
   <rect id="el089h2ar222bm" class="fil1" x="4160.88" y="1462.93" width="6016.1" height="4166.13"/>
   <rect id="el6mmkgoap5tm" class="fil2" x="4271.48" y="1462.93" width="6016.1" height="4166.13"/>
   <g id="elocr4h7v67qm">
    <rect id="elatjhktrjny" class="fil3" x="5406.81" y="736.64" width="3745.44" height="5618.96"/>
   </g>
   <g id="elg8ei0yro0d">
    <rect id="elnq107ehamm8" class="fil1" x="8174.35" y="3504.18" width="3745.44" height="83.61"/>
   </g>
   <rect id="elkwn3ez72li" class="fil2" x="4353.49" y="2008.76" width="5851.79" height="141.29"/>
   <g id="elamizhhjylpu">
    <g id="elq1wcmixzgy">
     <polygon id="elodp2ud82ok9" class="fil4" points="9951.55,5951.05 10189.15,5951.05 10189.15,1323.75 9951.55,1323.75 "/>
     <polygon id="elqfg91b1yga8" class="fil5" points="9649.66,5951.05 9887.26,5951.05 9887.26,1323.75 9649.66,1323.75 "/>
     <polygon id="elf25bdcmjhoc" class="fil5" points="9347.77,5951.05 9585.37,5951.05 9585.37,1323.75 9347.77,1323.75 "/>
     <polygon id="el9s6p47s1kc" class="fil5" points="9046.15,5951.05 9283.75,5951.05 9283.75,1323.75 9046.15,1323.75 "/>
     <polygon id="eljosrzywbsf8" class="fil4" points="8744.26,5951.05 8981.86,5951.05 8981.86,1323.75 8744.26,1323.75 "/>
     <polygon id="elpdx6sx4cehh" class="fil4" points="8442.37,5951.05 8679.97,5951.05 8679.97,1323.75 8442.37,1323.75 "/>
     <polygon id="eltvokqoeoac" class="fil5" points="8140.74,5951.05 8378.34,5951.05 8378.34,1323.75 8140.74,1323.75 "/>
     <polygon id="elsdacz6yikdb" class="fil5" points="7838.85,5951.05 8076.45,5951.05 8076.45,1323.75 7838.85,1323.75 "/>
     <polygon id="elepiehr82c37" class="fil4" points="7536.96,5951.05 7774.56,5951.05 7774.56,1323.75 7536.96,1323.75 "/>
     <polygon id="el7q85t6dvy6q" class="fil5" points="7235.07,5951.05 7472.67,5951.05 7472.67,1323.75 7235.07,1323.75 "/>
     <polygon id="el8s5b3w910yx" class="fil5" points="6933.45,5951.05 7171.05,5951.05 7171.05,1323.75 6933.45,1323.75 "/>
     <polygon id="ele4etv4zoned" class="fil5" points="6631.56,5951.05 6869.16,5951.05 6869.16,1323.75 6631.56,1323.75 "/>
     <polygon id="elptmj8vc6qao" class="fil5" points="6329.67,5951.05 6567.27,5951.05 6567.27,1323.75 6329.67,1323.75 "/>
     <polygon id="elc89xo1pni5" class="fil5" points="6027.78,5951.05 6265.38,5951.05 6265.38,1323.75 6027.78,1323.75 "/>
     <polygon id="elhgalio56omb" class="fil5" points="5726.15,5951.05 5963.75,5951.05 5963.75,1323.75 5726.15,1323.75 "/>
    </g>
   </g>
   <rect id="elfdnrcu34zih" class="fil6" x="1035.1" y="1960.61" width="1743.6" height="3170.77"/>
   <rect id="eln9guhoxxad" class="fil2" x="1147.54" y="1960.61" width="2005.54" height="3170.77"/>
   <g id="elvbiyr77z2i">
    <rect id="el15eqcklxjnw" class="fil3" x="640.07" y="2624.97" width="3020.48" height="1842.03"/>
   </g>
   <g id="el99tpt2mz7lm">
    <path class="fil2" d="M1241.2 3116.04l1818.22 0c40.33,0.01 73.03,32.71 73.03,73.03l0 714.11c0,40.32 -32.7,73.02 -73.02,73.02l-1818.23 0c-40.31,0 -73.01,-32.7 -73.01,-73.02l-0.01 -714.11c0.01,-40.32 32.71,-73.02 73.03,-73.02z"/>
   </g>
   <path id="elvso7p52uomq" class="fil0" d="M9543.04 4605.38l356.66 878.95c-10.32,2542.38 104.51,2688.96 105.83,3126.32l-899.59 -0.01c-33.33,-2128.04 282.31,-1649.67 437.1,-4005.26z"/>
   <path id="elk1vz8n7w08p" class="fil0" d="M10045.74 7201.74c-724.69,-1995.22 -2393.16,-1377.42 -2318.28,-650.08 74.88,727.34 2735,1797.58 2318.28,650.08z"/>
   <path id="elaysc3ilefl" class="fil0" d="M9771.64 8352.15c-395.29,-1285.61 -1446.74,-1075.8 -1446.74,-484.98 0,590.82 1674.28,1224.49 1446.74,484.98z"/>
   <path id="eldxf7o2yfbft" class="fil0" d="M9743.59 6031.22c-620.71,-1719.79 -2166.67,-1481.67 -2042.05,-756.97 124.62,724.7 2399.5,1745.45 2042.05,756.97z"/>
   <path id="elaul9m5t6a0p" class="fil0" d="M9747.82 5260.49c57.41,-1171.05 -1102.25,-1653.12 -1021.82,-952.5 80.43,700.62 988.75,1625.86 1021.82,952.5z"/>
   <path id="elmmfxt04og2" class="fil0" d="M9661.3 6459.32c244.74,-1443.04 1730.9,-1991.78 1564.75,-1175.01 -166.15,816.77 -1705.77,2005 -1564.75,1175.01z"/>
   <path id="elb9nmwovdg5" class="fil0" d="M9536.16 5643.61c-288.66,-1513.15 1046.43,-2185.46 1084.79,-1455.21 38.36,730.25 -918.9,2325.42 -1084.79,1455.21z"/>
   <path id="eldoph49kkh" class="fil0" d="M9420.27 7352.81c589.76,-1458.12 1852.08,-1096.43 1725.35,-432.86 -126.73,663.57 -2064.55,1271.59 -1725.35,432.86z"/>
   <path id="elrmjc4ufg2ui" class="fil0" d="M9711.31 8370.93c-13.23,-940.59 840.85,-1183.75 850.9,-638.7 10.05,545.05 -843.23,1179.77 -850.9,638.7z"/>
   <path id="elyjt9s2pshog" class="fil7" d="M9450.43 9509.7l0 0c-0.92,0 -2.24,0 -3.2,0 -459.6,0 -858.03,-319.03 -958.53,-767.35 -23.05,-117.04 -56.8,-232.51 -100.35,-343.81l-7.14 -17.99 2138.67 -0.09 -7.41 17.99c-43.23,111.28 -77.22,226.94 -99.96,344.07 -100.7,448.29 -499.11,767.17 -958.83,767.17 -1.08,0 -2.16,0 -3.24,0l-0.01 0.01z"/>
  </g>
  <g id="freepik--Shadow--inject-65">
   <ellipse id="freepik--path--inject-65" class="fil2" cx="6000" cy="10398.43" rx="5130" ry="299.51"/>
  </g>
  <g id="freepik--Cloud--inject-65">
   <path id="elqvb3uqodu5d" class="fil8" d="M2808.33 5045.91l-16.67 -20.37c68.17,-55.58 141.07,-106.48 216.99,-151.34l13.49 23.02c-74.82,44.07 -146.44,93.8 -213.8,148.63l-0.01 0.06z"/>
   <path id="elfc79st9kjtw" class="fil8" d="M2264.88 5802.09l-24.61 -9.26c90.86,-241.54 232.47,-461.71 414.68,-644.37l18.79 18.79c-179.41,180.07 -319.18,396.95 -408.78,634.86l-0.08 -0.02z"/>
   <path id="elxv6mjjxy6w" class="fil8" d="M7390.91 6968.11c-6.48,-773.81 -635.86,-1397.5 -1409.63,-1397.5 -180.71,0 -359.87,34.94 -527.33,102.4 -285.4,-584.72 -879.95,-956.34 -1530.86,-956.34 -798.15,0 -1489.4,554.42 -1662.63,1333.42 -772.13,48.54 -1373.59,689.18 -1373.59,1462.79 0,809.4 656.39,1465.79 1465.79,1465.79 1.07,0 2.15,0 3.22,0l4665.15 0.01c0.34,-0.01 0.98,-0.01 1.36,-0.01 573.88,0 1039.28,-465.4 1039.28,-1039.28 0,-431.52 -266.83,-818.38 -670.18,-971.53l-0.58 0.25z"/>
   <path id="el614lq3o9y7o" class="fil9" d="M6341.58 6494.51l-3733.27 0c-63.24,-0.3 -114.41,-51.6 -114.55,-114.84l-0.02 0.01c0.15,-63.23 51.36,-114.44 114.57,-114.58l3733.27 0.01c63.21,0.13 114.42,51.34 114.56,114.55l0 0.02c-0.14,63.23 -51.31,114.53 -114.56,114.81l0 0.02z"/>
   <path id="el0sbdyrb4e5nf" class="fil3" d="M5778.54 8044.96l-2607.2 0c-212.71,-0.01 -385.22,-172.52 -385.22,-385.24 0,-212.72 172.51,-385.23 385.23,-385.23l2607.19 0.01c212.73,-0.01 385.23,172.5 385.23,385.22 0,212.72 -172.5,385.23 -385.22,385.23l-0.01 0.01zm-2607.2 -744c-198.11,-0.02 -358.77,160.64 -358.77,358.76 0,198.12 160.66,358.78 358.78,358.78l2607.19 0.01c198.13,-0.01 358.78,-160.67 358.78,-358.79 0,-198.12 -160.65,-358.78 -358.77,-358.78l-2607.21 0.02z"/>
   <path id="ell9xjxfeyzxj" class="fil3" d="M3780.41 7952.36l-608.54 0c-0.08,-0.01 -0.19,-0.01 -0.26,-0.01 -161.78,0 -293.12,-130.84 -293.69,-292.61l0 -0.01c0.43,-161.46 131.19,-292.37 292.65,-292.91l608.52 0.02c161.45,0.52 292.21,131.43 292.64,292.88l-0.01 0.01c-0.53,160.83 -130.47,291.34 -291.31,292.63z"/>
   <polygon id="el7lzz1hf7ikt" class="fil8" points="6448.2,4270.42 5953.17,6379.68 2999.89,6379.68 3825.92,2859.4 5870.88,3339.09 "/>
   <g id="elcveg5v4yc0r">
    <polygon id="el1nyao927yw1i" class="fil10" points="6448.2,4270.42 5953.17,6379.68 2999.89,6379.68 3825.92,2859.4 5870.88,3339.09 "/>
   </g>
   <path id="el0hf4clktjzhg" class="fil8" d="M6062.97 4662.53l-2243.14 -526.52c-27.09,-6.26 -46.3,-30.43 -46.3,-58.25 0,-4.61 0.54,-9.22 1.59,-13.71l0 -0.01c6.31,-27.22 30.58,-46.5 58.52,-46.5 4.52,0 9.05,0.51 13.45,1.53l2243.4 525.72c27.12,6.5 46.26,30.76 46.26,58.66 0,4.57 -0.52,9.12 -1.55,13.57l0 0c-6.34,27.49 -30.83,46.97 -59.04,46.97 -4.43,0 -8.88,-0.5 -13.2,-1.46l0.01 0z"/>
   <path id="elvb2y6xnvbfh" class="fil8" d="M5977.25 5027.66l-2243.14 -526.52c-27.12,-6.38 -46.3,-30.6 -46.3,-58.47 0,-4.63 0.54,-9.25 1.6,-13.76l-0.02 -0.01c6.52,-27.12 30.78,-46.26 58.68,-46.26 4.57,0 9.12,0.52 13.57,1.55l2243.14 526.52c27.09,6.4 46.24,30.6 46.24,58.45 0,4.55 -0.52,9.08 -1.54,13.51l0 0.01c-6.41,27.24 -30.73,46.51 -58.72,46.51 -4.54,0 -9.08,-0.52 -13.51,-1.53z"/>
   <path id="eler6x77s1298" class="fil8" d="M5891.52 5391.46l-2243.14 -526.26c-27.11,-6.5 -46.25,-30.76 -46.25,-58.66 0,-4.57 0.52,-9.12 1.55,-13.57l-0.01 0c6.63,-27.12 30.95,-46.21 58.87,-46.21 4.5,0 8.99,0.5 13.37,1.49l2243.14 526.26c27.13,6.38 46.31,30.6 46.31,58.47 0,4.63 -0.54,9.25 -1.6,13.76l-0.01 0c-6.36,27.14 -30.58,46.32 -58.45,46.32 -4.63,0 -9.25,-0.54 -13.76,-1.6l-0.02 0z"/>
   <path id="el4bovicgkn8e" class="fil8" d="M5806.06 5757.64l-2243.4 -524.93c-27.11,-6.62 -46.2,-30.94 -46.2,-58.86 0,-4.5 0.5,-8.99 1.49,-13.37l-0.01 0c6.52,-27.13 30.78,-46.27 58.68,-46.27 4.57,0 9.12,0.52 13.57,1.55l2243.14 526.26c27.22,6.53 46.45,30.91 46.45,58.92 0,4.48 -0.5,8.95 -1.48,13.31l-0.01 0c-6.82,26.52 -30.76,45.06 -58.15,45.06 -4.74,0 -9.47,-0.56 -14.07,-1.67l-0.01 0z"/>
   <path id="elvyrommg9pt" class="fil8" d="M4828.42 5913.48l-1351.23 -317.5c-26.62,-6.75 -45.29,-30.73 -45.29,-58.22 0,-4.71 0.56,-9.43 1.66,-14.01l-0.02 0c6.28,-27.1 30.45,-46.31 58.27,-46.31 4.61,0 9.22,0.54 13.71,1.59l1351.49 317.5c27.13,6.38 46.31,30.6 46.31,58.47 0,4.63 -0.54,9.25 -1.6,13.76l-0.01 0.01c-6.27,27.24 -30.54,46.55 -58.51,46.55 -4.98,0 -9.94,-0.62 -14.77,-1.84l-0.01 0z"/>
   <polygon id="elqqw2c5icnc7" class="fil8" points="6448.2,4270.42 5693.88,4093.41 5870.88,3339.09 "/>
  </g>
  <g id="freepik--Character--inject-65">
   <path id="elikbmod09hqf" class="fil9" d="M6954.88 6273.31l-627.06 4125.12 123.82 0 82.81 -545.84 1597.56 0.01 -82.81 545.84 123.82 -0.01 627.06 -4125.12 -1845.2 0zm1193.8 3470.02l-1597.55 0 89.16 -585.26 1597.56 0 -89.17 585.26zm105.83 -694.54l-1597.81 0 89.16 -585.26 1597.55 0.01 -88.9 585.25zm105.84 -694.53l-1598.09 0 89.16 -585.26 1597.56 0 -88.63 585.26zm105.83 -694.53l-1598.08 0 88.9 -585.52 1597.55 0 -88.37 585.52zm-1492.51 -694.79l88.9 -585.26 1597.55 0 -88.9 585.26 -1597.55 0z"/>
   <path id="elzqdcoeu44ro" class="fil9" d="M9058.05 6273.31l-1845.2 0 627.06 4125.12 123.83 0 -83.08 -545.84 1597.55 0.01 83.08 545.84 123.83 -0.01 -627.07 -4125.12zm-1705.24 105.84l1597.56 0 88.9 585.26 -1597.56 0 -88.9 -585.26zm105.84 694.53l1597.29 0 88.9 585.52 -1597.56 0 -88.63 -585.52zm105.83 694.8l1597.56 0 88.37 586.31 -1597.56 0 -88.37 -586.31zm105.83 694.53l1597.56 0 88.9 585.26 -1598.35 -0.01 -88.11 -585.25zm194.47 1279.79l-88.9 -585.26 1597.56 0 88.9 585.26 -1597.56 0z"/>
   <g id="elb4wduis5yb">
    <path id="elrx29bqs11b" class="fil11" d="M9058.05 6273.31l-1845.2 0 627.06 4125.12 123.83 0 -83.08 -545.84 1597.55 0.01 83.08 545.84 123.83 -0.01 -627.07 -4125.12zm-1705.24 105.84l1597.56 0 88.9 585.26 -1597.56 0 -88.9 -585.26zm105.84 694.53l1597.29 0 88.9 585.52 -1597.56 0 -88.63 -585.52zm105.83 694.8l1597.56 0 88.37 586.31 -1597.56 0 -88.37 -586.31zm105.83 694.53l1597.56 0 88.9 585.26 -1598.35 -0.01 -88.11 -585.25zm194.47 1279.79l-88.9 -585.26 1597.56 0 88.9 585.26 -1597.56 0z"/>
   </g>
   <path id="elp0zut8fwdl" class="fil12" d="M8267.48 2258.26c52.92,40.75 99.48,81.49 147.64,123.83 48.16,42.34 94.19,85.73 139.7,130.44 92.22,90.52 178.99,187.33 258.23,288.8l29.63 39.95 14.82 19.84c8.35,11.79 15.92,24.15 22.5,36.92 21.25,42.75 33.74,89.38 36.51,137.05 0.61,12.19 0.96,24.78 0.96,37.11 0,61.13 -7.9,122.08 -23.44,181.12 -32.32,127.62 -81.85,250.8 -146.68,365.15l-135.2 -55.03c27.2,-113.67 46.64,-230.33 57.62,-346.98 1.74,-18.91 2.73,-38.2 2.73,-57.34 0,-31.3 -2.61,-62.73 -7.63,-93.6 -2.35,-14.26 -7.69,-27.89 -15.59,-39.97 -1.32,-1.32 -1.85,-1.32 -2.65,-2.12l-14.29 -16.14 -28.58 -32.54c-79.38,-85.73 -162.98,-169.33 -251.35,-249.77 -88.37,-80.44 -179.92,-161.4 -268.82,-236.54l183.89 -230.18z"/>
   <path id="elnjv2tdfbkpg" class="fil12" d="M8665.94 3508.95l-152.14 105.83 185.21 112.18c0,0 95.51,-91.28 54.5,-175.95l-87.57 -42.06z"/>
   <polygon id="elgbkurat9ste" class="fil12" points="8438.14,3788.61 8578.36,3867.19 8700.07,3725.64 8513.81,3613.72 "/>
   <path id="elujjt1v6b9za" class="fil9" d="M7231.64 1705.28c4.23,17.2 -1.32,33.34 -12.44,36.25 -11.12,2.91 -23.81,-8.73 -28.31,-26.46 -4.5,-17.73 1.32,-33.34 12.44,-36.25 11.12,-2.91 23.81,8.47 28.31,26.46z"/>
   <path id="el7psn6m1yv8p" class="fil13" d="M7231.9 1738.36c-6.88,57.41 -21.88,113.84 -44.17,167.2 11.74,4.53 24.24,6.87 36.84,6.87 17.06,0 33.89,-4.28 48.88,-12.41l-41.55 -161.66z"/>
   <path id="elaeu1foqcmyc" class="fil9" d="M7267.88 1594.95c-1.02,0.33 -2.09,0.5 -3.17,0.5 -1.08,0 -2.15,-0.17 -3.17,-0.5 -10.27,-4.36 -21.32,-6.61 -32.48,-6.61 -14.92,0 -29.58,4.03 -42.41,11.63 -1.51,0.84 -3.21,1.27 -4.93,1.27 -5.7,0 -10.32,-4.62 -10.32,-10.32 0,-2.89 1.21,-5.65 3.35,-7.61 16.34,-10.27 35.29,-15.73 54.6,-15.73 13.69,0 27.25,2.74 39.86,8.05 3.91,1.58 6.47,5.37 6.47,9.58 0,4.73 -3.21,8.85 -7.79,10.01l-0.01 -0.27z"/>
   <path id="elwlb0rxszt3n" class="fil12" d="M7774.03 1753.44c24.61,161.4 59.27,408.78 201.08,471.22 0,0 13.76,167.75 -266.44,268.55 -307.98,110.86 -202.14,-99.75 -202.14,-99.75 153.72,-100.81 104.51,-223.84 33.07,-330.46l234.43 -309.56z"/>
   <path id="elnyxpzgr4qhn" class="fil9" d="M8001.57 2190c0,-50.54 -51.59,-138.11 -103.72,-132.29 -57.41,6.61 -276.49,87.31 -356.39,161.13 -79.9,73.82 -23.28,203.2 -23.28,203.2l483.39 -232.04z"/>
   <path id="el196xihc8j66" class="fil8" d="M9690.94 8307.17c-13.76,14.29 -29.37,26.46 -41.54,24.61 -5.29,0 -12.17,-3.7 -15.61,-15.35 -0.64,-2.05 -0.97,-4.18 -0.97,-6.32 0,-4.05 1.16,-8.01 3.34,-11.42 14.82,-25.14 79.38,-38.1 81.23,-38.63 0.31,-0.06 0.62,-0.09 0.93,-0.09 1.51,0 2.94,0.72 3.84,1.94 0.44,0.77 0.67,1.64 0.67,2.52 0,0.88 -0.23,1.75 -0.67,2.52 -8.99,14.38 -19.48,27.92 -31.21,40.2l-0.01 0.02zm-43.39 -8.21c-1.45,1.3 -2.7,2.82 -3.7,4.49 -1.21,2.02 -1.85,4.32 -1.85,6.67 0,1.23 0.18,2.47 0.52,3.65 2.65,8.2 6.61,8.73 7.94,9 13.49,1.59 41.28,-26.46 57.94,-51.06 -22.06,4.36 -42.91,13.69 -60.86,27.24l0.01 0.01z"/>
   <path id="elgxfz7nbp2p" class="fil8" d="M9721.63 8267.74c-0.5,0.57 -1.13,1.03 -1.85,1.31 -21.96,6.88 -79.38,5.03 -92.34,-12.96 -1.62,-2.49 -2.49,-5.4 -2.49,-8.37 0,-3.86 1.46,-7.58 4.07,-10.42 4.26,-5.79 10.83,-9.46 17.99,-10.04 28.84,-3.44 72.5,32.28 74.35,33.87 1.05,0.84 1.66,2.12 1.66,3.47 0,0.25 -0.02,0.5 -0.06,0.75 -0.22,0.9 -0.68,1.73 -1.33,2.38l0 0.01zm-83.87 -26.45c0,0 0,0 -1.32,1.59 -3.7,4.76 -2.12,6.88 -1.32,7.94 7.41,10.58 47.89,15.35 72.76,11.38 -16.76,-14.71 -37.65,-23.97 -59.8,-26.48 -4.07,0.33 -7.82,2.35 -10.32,5.56l0 0.01z"/>
   <path id="el8rbyzpr4rpx" class="fil8" d="M8090.21 8860.15c-24.87,0 -48.95,-3.44 -57.15,-14.55 -2.04,-2.97 -3.13,-6.48 -3.13,-10.07 0,-3.59 1.09,-7.1 3.13,-10.06 3.16,-5.45 8.42,-9.37 14.55,-10.84 32.28,-8.73 100.28,29.9 103.19,31.75 1.35,0.75 2.19,2.17 2.19,3.71 0,0.26 -0.03,0.53 -0.07,0.79 -0.21,2 -1.73,3.62 -3.71,3.96 -19.44,3.43 -39.21,5.21 -58.98,5.3l-0.02 0.01zm-30.69 -37.57c-1.49,-0.23 -3,-0.34 -4.5,-0.34 -1.5,0 -3.01,0.11 -4.5,0.32 -3.76,0.74 -7.03,3.06 -8.99,6.35 -3.18,5.82 -2.12,8.47 0,10.32 9,12.44 57.94,12.7 94.19,7.67 -23.47,-12.9 -49.33,-21.2 -75.93,-24.33l-0.27 0.01z"/>
   <path id="elkxwqkpqqc3" class="fil8" d="M8149.21 8854.85c-0.3,0.11 -0.61,0.17 -0.93,0.17 -0.32,0 -0.63,-0.06 -0.93,-0.17 -23.55,-10.32 -69.85,-52.92 -66.41,-74.35 0,-5.29 4.5,-11.64 17.2,-12.96 1.38,-0.18 2.79,-0.27 4.18,-0.27 8.16,0 16.07,2.91 22.28,8.19 17.78,21.08 28.39,47.36 30.17,74.88 0.02,0.2 0.03,0.39 0.03,0.58 0,1.46 -0.7,2.82 -1.89,3.67 -0.65,0.35 -1.39,0.54 -2.14,0.54 -0.53,0 -1.06,-0.09 -1.56,-0.28zm-47.36 -79.37l-2.91 0c-8.2,0 -8.73,3.97 -9,5.03 -2.12,13.23 29.63,46.3 52.92,60.59 -2.28,-22.22 -11.57,-43.17 -26.47,-59.8 -4.13,-3.31 -9.25,-5.17 -14.54,-5.3l0 -0.52z"/>
   <polygon id="elvqm31rr5o7" class="fil12" points="8362.99,8850.36 8168.53,8850.36 8149.21,8400.04 8343.68,8400.04 "/>
   <polygon id="ely8y2c5vv9li" class="fil12" points="9920.6,8191.01 9740.68,8256.37 9512.08,7853.14 9692,7787.79 "/>
   <path id="el1fs842e2w0g" class="fil9" d="M9712.37 8238.64l151.87 -157.16c3.22,-3.24 7.6,-5.05 12.16,-5.05 3.07,0 6.1,0.83 8.75,2.39l150.81 92.6c8.35,5.22 13.42,14.38 13.42,24.23 0,7.59 -3.02,14.87 -8.39,20.23 -52.92,52.92 -82.81,77.52 -149.49,146.58 -41.28,42.33 -163.51,185.21 -220.13,245 -56.62,59.79 -122.24,10.05 -104.25,-19.05 80.7,-130.44 129.38,-254.53 132.29,-318.82 0.34,-11.56 4.96,-22.6 12.95,-30.96l0.01 0.01z"/>
   <path id="el5yzdm0w9vcu" class="fil9" d="M8169.58 8827.87l211.67 0c0.05,-0.01 0.1,-0.01 0.15,-0.01 7.92,0 14.79,5.5 16.52,13.23l38.36 172.77c0.49,2.08 0.74,4.22 0.74,6.36 0,15.49 -12.56,28.05 -28.05,28.05 -0.24,0 -0.49,-0.01 -0.73,-0.01 -76.46,0 -187.06,-5.56 -283.37,-5.56 -112.45,0 -161.66,6.09 -293.69,6.09 -79.38,0 -101.86,-80.7 -68.53,-88.11 152.14,-33.34 228.07,-36.78 359.57,-117.74 14.07,-9.32 30.49,-14.55 47.36,-15.09l0 0.02z"/>
   <path id="elhec6t44jb9n" class="fil12" d="M7641.74 2644.29c-29.9,75.41 -61.65,145.52 -94.46,217.49 -32.81,71.97 -67.73,141.82 -103.72,211.67 -72.73,143.36 -156.75,282.21 -249.84,413.17 -24.61,33.34 -51.06,66.41 -79.38,99.22 -14.55,16.67 -29.37,32.01 -46.83,49.21 -20.38,18.91 -42.54,35.98 -66.07,50.65 -38.8,23.71 -79.93,44.18 -122.28,60.61 -39.69,16.14 -79.38,29.37 -118.27,41.01 -152.9,44.23 -310.65,73.88 -469.59,87.22l-29.63 -142.88c141.55,-51.06 285.49,-104.25 418.04,-163.51 32.81,-15.35 65.09,-30.96 95.25,-47.1 27.79,-14.39 54.54,-31.4 79.39,-50.5 8.57,-6.42 16.5,-13.81 23.53,-21.93 9.26,-10.85 20.37,-23.55 30.43,-36.51 20.37,-26.46 40.48,-54.5 59.8,-84.4 39.42,-58.74 75.94,-122.5 111.13,-187.33 35.19,-64.83 69.59,-132.29 102.39,-198.44 65.88,-134.14 129.65,-273.05 188.38,-408.78l271.73 111.13z"/>
   <path id="el4scx15rjhgq" class="fil8" d="M8085.45 2142.11c278.87,-21.7 529.17,391.85 529.17,391.85l-200.29 325.44c-143.9,-56.87 -278.32,-136.96 -396.86,-236.27 -189.73,-164.84 -122.52,-465.94 67.98,-481.02z"/>
   <g id="el4hvc2cw6a47">
    <path id="elbcg9rp06zkc" class="fil14" d="M8067.98 2490.57l293.42 395.02 -13.23 16.14c0,0 -101.07,-79.38 -218.02,-194.2l-62.17 -216.96z"/>
   </g>
   <path id="elevsl1u758hf" class="fil8" d="M7312.07 2450.35c-15.61,136.26 211.67,738.98 264.58,1453.89l1034.79 -101.86c-7.41,-137.05 -83.08,-714.38 -220.13,-1366.04 -37.84,-179.92 -177.27,-317.5 -357.45,-282.31l-5.03 0c-144.32,27.89 -288.35,65.4 -428.21,109.86 -79.25,28.58 -157.11,63.11 -231.73,102.27 -31.75,16.81 -53.11,48.41 -56.82,84.19z"/>
   <g id="elayvmnd9sso">
    <path id="el46934xuk148" class="fil14" d="M7416.84 2950.94c17.46,72.76 35.72,151.61 52.92,235.48 157.43,-37.31 127,-386.29 130.18,-390.79l-183.1 155.31z"/>
   </g>
   <path id="elsq1i9t21gy9" class="fil8" d="M7649.15 2517.82c79.38,272.26 -214.31,635 -214.31,635l-295.8 -190.5c0,0 -2.12,-249.5 92.34,-444.24 119.85,-246.59 361.15,-194.47 417.77,-0.26z"/>
   <path id="elogoir5233y" class="fil12" d="M6264.58 3705.8l-118.8 -16.14 1.85 248.18c0,0 160.07,16.4 248.97,-93.93l-17.46 -46.57c-18.46,-49.22 -62.46,-84.39 -114.55,-91.54l-0.01 0z"/>
   <polygon id="elw5pa5er8x3n" class="fil12" points="5942.85,3747.07 6018.79,3949.21 6148.7,3937.84 6146.84,3689.66 "/>
   <g id="eltso49tu9jyc">
    <polygon id="el3od6y9ot0oe" class="fil15" points="8149.21,8400.3 8160.06,8653.24 8354.53,8653.24 8343.68,8400.3 "/>
   </g>
   <g id="eln6uatrz9cb">
    <polygon id="elsc2i0xxy2rj" class="fil15" points="9692,7787.79 9512.08,7853.14 9638.55,8076.45 9810,7995.49 "/>
   </g>
   <path id="elb5kzg64637" class="fil12" d="M7792.82 1522.72c41.01,213.52 75.94,336.29 -2.65,471.49 -118,203.2 -402.17,173.3 -505.88,-23.55 -93.66,-177.54 -144.99,-496.62 38.63,-632.88 51.34,-38.61 113.89,-59.52 178.14,-59.52 143.62,0 266.63,103.07 291.77,244.45l-0.01 0.01z"/>
   <path id="elftrn60ld5k7" class="fil9" d="M7433.25 1665.33c-130.18,65.09 -132.29,-142.88 -121.97,-187.06 -48.95,47.1 -115.09,94.46 -235.21,42.6 -147.64,-63.76 -105.83,-230.45 0,-228.34 0,0 -79.38,-150.81 94.19,-166.69 6.21,-0.1 12.82,-0.31 19.14,-0.31 64.99,0 129.69,11.1 190.96,32.6 61.27,21.5 64.29,-168.54 220.93,-86.78 82.81,43.13 148.96,170.66 148.96,170.66 0,0 337.34,50.01 154.25,226.22 41.54,90.49 19.58,384.97 -87.58,510.91 -46.86,55.02 -447.7,38.88 -383.67,-313.81z"/>
   <path id="elt0sbfzkr8tk" class="fil9" d="M7691.75 1327.99c0,0 61.12,-84.4 66.15,-279.14 142.6,155.05 -66.15,279.14 -66.15,279.14z"/>
   <path id="eleprcy1xwvsp" class="fil12" d="M7496.48 1653.42c0.28,5.16 0.49,10.4 0.49,15.57 0,48.72 -14.57,96.43 -41.76,136.84 -39.69,59 -93.66,33.6 -111.13,-28.58 -15.88,-55.83 -14.29,-153.99 39.42,-191.03 53.71,-37.04 107.43,2.12 112.98,67.2z"/>
   <path id="elag1jno0y94" class="fil9" d="M7944.16 3868.25c0,0 365.13,1455.21 540.28,1998.4 191.56,593.73 1022.88,2150.27 1022.88,2150.27l326.23 -142.08c0,0 -629.18,-1417.11 -763.59,-2010.83 -145.79,-643.47 -457.99,-2062.16 -457.99,-2062.16l-667.81 66.4z"/>
   <path id="elm207ki1o4jp" class="fil8" d="M9410.74 7909.5c-1.32,0 105.83,153.19 105.83,153.19l366.45 -161.93 -74.08 -151.61 -398.2 160.35z"/>
   <g id="elofgp8eqj7t">
    <path id="elonbg44vach" class="fil14" d="M8134.92 4381.28c258.76,24.61 324.91,973.93 342.37,1463.94 -107.16,-337.08 -279.4,-988.75 -398.99,-1451.5 13.88,-8.54 29.86,-13.07 46.16,-13.07 3.5,0 7,0.22 10.47,0.62l-0.01 0.01z"/>
   </g>
   <path id="elqmlepq4y15" class="fil9" d="M7577.18 3904.24c0,0 42.07,1495.43 121.18,2083.33 82.29,611.45 386.56,2566.46 386.56,2566.46l329.4 -0.01c0,0 -76.2,-1974.32 -120.91,-2578.36 -48.68,-658.55 -35.98,-2138.89 -35.98,-2138.89l-680.25 67.47z"/>
   <path id="elnfjrs5roqg" class="fil8" d="M8019.3 8400.3c-1.32,0 26.46,199.23 26.46,199.23l400.31 -13.76 3.7 -185.21 -430.47 -0.26z"/>
  </g>
 </g>
</svg>
